<svg id="Layer_1" data-name="Layer 1" xmlns="http://www.w3.org/2000/svg" viewBox="0 0 849.04 300"><defs><style>.cls-1{fill:#1d1d1b;}.cls-2{fill:#575756;}</style></defs><title>UPI</title><g id="Group_21635" data-name="Group 21635"><path id="Path_26930" data-name="Path 26930" class="cls-1" d="M6.72,257.59h6.35l-5.95,25a10.48,10.48,0,0,0,.5,8.25,7.55,7.55,0,0,0,6.75,2.76,12.17,12.17,0,0,0,8.1-2.76,15.48,15.48,0,0,0,4.4-8.24l6-25h6.6l-6,25.35a21.35,21.35,0,0,1-7.05,12.29,20.37,20.37,0,0,1-13.2,4.15,13.22,13.22,0,0,1-11.21-4.05A15,15,0,0,1,.84,283Z"/><path id="Path_26931" data-name="Path 26931" class="cls-1" d="M38.38,298.24l10-42.24,19.16,25c.5.7,1,1.44,1.55,2.24l1.6,2.7,6.74-28.14h5.95L73.38,300,53.83,274.65l-1.5-2.1a12.73,12.73,0,0,1-1.27-2.46l-6.65,28.05h-6Z"/><path id="Path_26932" data-name="Path 26932" class="cls-1" d="M83,298.24l9.7-40.65h6.46l-9.71,40.65Z"/><path id="Path_26933" data-name="Path 26933" class="cls-1" d="M98.63,298.24l9.66-40.65h22.1l-1.3,5.65H113.43l-2.4,10h15.66L125.24,279h-15.8L104.88,298H98.63Z"/><path id="Path_26934" data-name="Path 26934" class="cls-1" d="M127.89,298.24l9.65-40.65H144l-9.61,40.65Z"/><path id="Path_26935" data-name="Path 26935" class="cls-1" d="M143.49,298.24l9.7-40.65h22.1l-1.3,5.65H158.34l-2.4,10h15.6l-1.4,5.75h-15.7l-3.1,13.1H167l-1.44,6Z"/><path id="Path_26936" data-name="Path 26936" class="cls-1" d="M173.09,298.24l9.66-40.65h8.7a51,51,0,0,1,11.7.9,11.82,11.82,0,0,1,8.85,10,24.46,24.46,0,0,1-.5,9.6,31.6,31.6,0,0,1-4,9.55,23.88,23.88,0,0,1-6.9,6.9,19.16,19.16,0,0,1-6.65,2.89,45.05,45.05,0,0,1-10.49.9H173.09Zm7.85-6h5.46a30.49,30.49,0,0,0,6.87-.6,13.35,13.35,0,0,0,4.33-2,17.28,17.28,0,0,0,4.56-5,22.54,22.54,0,0,0,2.7-6.87,18.27,18.27,0,0,0,.49-6.75,9.1,9.1,0,0,0-2.2-5A7.25,7.25,0,0,0,199.6,264a29.59,29.59,0,0,0-7.15-.6h-4.64Z"/><path id="Path_26937" data-name="Path 26937" class="cls-1" d="M241.15,280l-4.3,18.25h-6l9.65-40.65h10a30.48,30.48,0,0,1,6.25.5,8,8,0,0,1,4.75,5.7,13.64,13.64,0,0,1,0,5.25,16.84,16.84,0,0,1-2.3,5.35,14.11,14.11,0,0,1-3.85,3.85,13.56,13.56,0,0,1-3.95,1.6,33.25,33.25,0,0,1-6.46.5h-3.75Zm1.75-5.45h1.55a16.24,16.24,0,0,0,7.45-1.2,6.13,6.13,0,0,0,2.87-4.25,4.29,4.29,0,0,0-.8-4.5,11.17,11.17,0,0,0-6.7-1.35h-1.6Z"/><path id="Path_26938" data-name="Path 26938" class="cls-1" d="M283.35,298.24l-2-10.44h-15.7l-7.1,10.45h-6.75L281,256l9.1,42.24Zm-13.9-16h11l-1.81-9.3a13.35,13.35,0,0,1,0-2,21.69,21.69,0,0,1,0-2.55,19.71,19.71,0,0,1-1.3,2.55,18.45,18.45,0,0,1-1.25,2.1Z"/><path id="Path_26939" data-name="Path 26939" class="cls-1" d="M299.46,298.24l4.4-18.55-8.05-22h6.76l5,13.85a2.12,2.12,0,0,0,.41,1.4c.4.6.3,1.2.49,1.81l1.2-1.81c.41-.6.8-1.08,1.21-1.6l11.85-13.65h6.46L310.26,279.6l-4.39,18.55h-6.41Z"/><path id="Path_26940" data-name="Path 26940" class="cls-1" d="M360.81,278.19a13,13,0,0,1,.3-2.64c.3-1.45,0-2.1.3-2.9-.4.9-.8,1.81-1.3,2.8a18.8,18.8,0,0,1-1.81,2.85L342.76,300l-5-22.1a21.7,21.7,0,0,0-.5-2.65,20.85,20.85,0,0,1,0-2.5,11,11,0,0,1-.8,2.7,19.82,19.82,0,0,1-1.2,2.95l-9.1,20H320L339.48,256,345,281.65a16.93,16.93,0,0,1,.3,2,24.27,24.27,0,0,0,.55,3.5c.7-1.2,1.6-2.6,2.8-4.4a9.61,9.61,0,0,0,.7-1.09L366.94,256l-.6,42.35h-5.95Z"/><path id="Path_26941" data-name="Path 26941" class="cls-1" d="M371.52,298.24l9.7-40.65h22l-1.3,5.65h-15.6l-2.45,10h15.54L398.07,279H382.41l-3,13.3h15.66l-1.4,5.95Z"/><path id="Path_26942" data-name="Path 26942" class="cls-1" d="M401,298.24,411,256l19.16,25c.5.69,1,1.44,1.5,2.24s1.05,1.7,1.65,2.7L440,257.8h6L436,300l-19.55-25.35-1.5-2.1a8.73,8.73,0,0,1-1.25-2.45l-6.75,28.25H401Z"/><path id="Path_26943" data-name="Path 26943" class="cls-1" d="M466.68,263.14l-8.4,35h-6.45l8.36-35H449.73l1.31-5.65h27.43l-1.35,5.65Z"/><path id="Path_26944" data-name="Path 26944" class="cls-1" d="M473.44,290l5.75-2.4a5.38,5.38,0,0,0,1.7,4.1,7.08,7.08,0,0,0,4.65,1.45,7.88,7.88,0,0,0,5-1.65,7.3,7.3,0,0,0,2.7-4.34c.6-2.4-.8-4.5-4.25-6.35a6.82,6.82,0,0,0-1.09-.6,18.63,18.63,0,0,1-7.25-5.95,8.7,8.7,0,0,1-.6-6.45,14,14,0,0,1,5.2-7.8,14.93,14.93,0,0,1,9.35-3.15,12.93,12.93,0,0,1,7,1.7,6.83,6.83,0,0,1,2.89,5l-5.65,2.64a6.33,6.33,0,0,0-1.9-2.84,5,5,0,0,0-3.06-.9,7.49,7.49,0,0,0-4.45,1.4,6.69,6.69,0,0,0-2.4,3.74c-.6,2.4,1.09,5,5,6.87l.71.4a16.63,16.63,0,0,1,6.74,5.13,9.13,9.13,0,0,1,.6,6.65,15.76,15.76,0,0,1-5.6,9.3,16.75,16.75,0,0,1-10.4,3.45,11.43,11.43,0,0,1-7.75-2.45A8,8,0,0,1,473.44,290Z"/><path id="Path_26945" data-name="Path 26945" class="cls-1" d="M520.94,298.24l9.7-40.65h6.45l-9.7,40.65Z"/><path id="Path_26946" data-name="Path 26946" class="cls-1" d="M536.7,298.24l10-42.24,19.2,25c.5.69,1,1.44,1.5,2.24l1.6,2.7,6.76-28.15h6l-10,42.2-19.6-25.34-1.5-2.1a10,10,0,0,1-1.09-2.56l-6.75,28.25H536.7Z"/><path id="Path_26947" data-name="Path 26947" class="cls-1" d="M602.35,263.14l-8.35,35h-6.5l8.4-35H585.41l1.31-5.65h27.45l-1.3,5.65Z"/><path id="Path_26948" data-name="Path 26948" class="cls-1" d="M609.5,298.24l9.71-40.65h22.2l-1.3,5.65h-15.6l-2.45,10h15.65l-1.4,5.75H620.66l-3.1,13.1h15.6l-1.4,6Z"/><path id="Path_26949" data-name="Path 26949" class="cls-1" d="M649.16,280l-4.34,18.15h-6.06l9.7-40.65h9a29.08,29.08,0,0,1,6,.5,6.59,6.59,0,0,1,3.3,1.75,6.93,6.93,0,0,1,1.9,3.8,11.4,11.4,0,0,1,0,5,15.09,15.09,0,0,1-4.1,7.7,14,14,0,0,1-7.59,3.3l9.2,18.43h-7.26l-9-18Zm1.6-5H652a14.51,14.51,0,0,0,7.06-1.2,6.45,6.45,0,0,0,2.7-4.34c.5-2.2.3-3.79-.7-4.69a9.76,9.76,0,0,0-6.36-1.45h-1.2Z"/><path id="Path_26950" data-name="Path 26950" class="cls-1" d="M669.87,298.24l9.65-40.65h22.1l-1.3,5.65h-15.8l-2.4,10h15.65L696.33,279H680.72L676.17,298h-6.45Z"/><path id="Path_26951" data-name="Path 26951" class="cls-1" d="M723.12,298.24l-2-10.44H705.37l-7.06,10.45h-6.79L720.82,256l9,42.24Zm-14-16h11l-1.81-9.3a11.13,11.13,0,0,1,0-2,21.69,21.69,0,0,1,0-2.55,55.38,55.38,0,0,1-2.5,4.65Z"/><path id="Path_26952" data-name="Path 26952" class="cls-1" d="M771.83,267.5a13.36,13.36,0,0,0-5-3.55,14.87,14.87,0,0,0-6.2-1.2A17.66,17.66,0,0,0,749,267a19.92,19.92,0,0,0-6.75,11.1,13.09,13.09,0,0,0,1.44,10.9,10,10,0,0,0,8.95,4.24,19,19,0,0,0,7-1.34,29.08,29.08,0,0,0,7.1-3.8l-1.85,7.45a22.75,22.75,0,0,1-6.36,2.8,26,26,0,0,1-6.86.95,20,20,0,0,1-8-1.57,14.37,14.37,0,0,1-5.79-4.5,14.75,14.75,0,0,1-2.8-6.9,20.6,20.6,0,0,1,.5-8.45,27.09,27.09,0,0,1,3.55-8.4,29.13,29.13,0,0,1,14-11.42,25.48,25.48,0,0,1,8.6-1.5,19.63,19.63,0,0,1,6.45,1,17.84,17.84,0,0,1,5.35,3.15Z"/><path id="Path_26953" data-name="Path 26953" class="cls-1" d="M772.48,298.24l9.65-40.65h22.1l-1.3,5.65H787.28l-2.4,10h15.6l-1.4,5.75H783.43l-3.1,13.1H796l-1.45,6.15Z"/><path id="Path_26954" data-name="Path 26954" class="cls-1" d="M655,222.19H610.7L672.26,0h44.31Z"/><path id="Path_26955" data-name="Path 26955" class="cls-1" d="M632,7A16.21,16.21,0,0,0,617.81.6H374.47l-12,43.55H583.85L571,90.65H349.47L312.76,223.3h44.31l24.6-89h199A28,28,0,0,0,598.25,128a29.48,29.48,0,0,0,10.8-15.75l24.61-89A17.92,17.92,0,0,0,632,7Z"/><path id="Path_26956" data-name="Path 26956" class="cls-1" d="M287,208.3a20.35,20.35,0,0,1-19.55,15H39.08A15.93,15.93,0,0,1,25.17,217a17.24,17.24,0,0,1-1.9-15.71L78.93.6h44.31L73.48,180H250.65L300.66.85h43.79Z"/><path id="Path_26957" data-name="Path 26957" class="cls-2" d="M793,.4l56,111.35L731.27,223.1Z"/><path id="Path_26958" data-name="Path 26958" class="cls-1" d="M753.68.4l56,111.35L691.87,223.1Z"/></g></svg>