<svg id="Layer_1" data-name="Layer 1" xmlns="http://www.w3.org/2000/svg" viewBox="0 0 849.04 300"><defs><style>.cls-1{fill:#fff;}.cls-2{fill:#575756;}</style></defs><title>UPI</title><path class="cls-1" d="M6.8,257.64h6.34L7.2,282.36a10.51,10.51,0,0,0,.49,8.28,7.56,7.56,0,0,0,6.77,2.71,12,12,0,0,0,8.07-2.71A15.44,15.44,0,0,0,27,282.36l6-24.72h6.37l-6,25.31a21.47,21.47,0,0,1-7.08,12.31,20.24,20.24,0,0,1-13.2,4.15c-5.45,0-9.18-1.32-11.21-4S-.52,288.51.73,283.07Z"/><path class="cls-1" d="M38.47,298.3l10.09-42.17L67.72,281c.51.7,1,1.41,1.51,2.21s1,1.73,1.62,2.72l6.75-28.14h6L73.47,299.93,53.89,274.6l-1.5-2.12a11.2,11.2,0,0,1-1.21-2.36l-6.77,28.3H38.47Z"/><path class="cls-1" d="M83.05,298.3l9.69-40.66H99.2L89.6,298.3Z"/><path class="cls-1" d="M98.68,298.3l9.79-40.66h22.1l-1.42,5.57H113.52l-2.36,10.09H126.8l-1.4,5.76H109.7l-4.56,19.05H98.68Z"/><path class="cls-1" d="M128,298.3l9.67-40.66h6.46l-9.67,40.66Z"/><path class="cls-1" d="M143.59,298.3l9.69-40.66h22.1l-1.32,5.57H158.42l-2.36,10.19H171.7l-1.41,5.75H154.58l-3.14,13.11h15.64l-1.42,6Z"/><path class="cls-1" d="M173.14,298.3l9.69-40.66h8.68a50.77,50.77,0,0,1,11.8.9,12.37,12.37,0,0,1,5.33,2.92,12.82,12.82,0,0,1,3.53,6.87,24.59,24.59,0,0,1-.49,9.59,31.91,31.91,0,0,1-4.15,9.58,23.52,23.52,0,0,1-6.87,6.86,19.92,19.92,0,0,1-6.67,2.93,44.34,44.34,0,0,1-10.47.89H173.14Zm7.88-6.06h5.45a30.24,30.24,0,0,0,6.84-.61,13.17,13.17,0,0,0,4.33-2,16.34,16.34,0,0,0,4.56-4.95,21.86,21.86,0,0,0,2.71-6.86,17.88,17.88,0,0,0,.52-6.75,9.44,9.44,0,0,0-2.22-4.95,6.89,6.89,0,0,0-3.54-2,30.5,30.5,0,0,0-7.07-.61h-4.72Z"/><path class="cls-1" d="M241.23,280l-4.34,18.28h-6l9.67-40.66h9.79a29.09,29.09,0,0,1,6.25.5,6.1,6.1,0,0,1,3.14,1.62,6.76,6.76,0,0,1,2,3.82,13.89,13.89,0,0,1-.22,5.26,16.25,16.25,0,0,1-2.36,5.33,13.8,13.8,0,0,1-3.84,3.85,13.39,13.39,0,0,1-3.94,1.6,32.5,32.5,0,0,1-6.46.52h-3.73ZM243,274.6h1.61a16.34,16.34,0,0,0,7.47-1.23,6.28,6.28,0,0,0,2.83-4.24,4.32,4.32,0,0,0-.82-4.53,11.33,11.33,0,0,0-6.65-1.32h-1.61Z"/><path class="cls-1" d="M283.4,298.3l-2-10.49H265.64l-7.08,10.49H251.8l29.29-42.17,9,42.17Zm-13.92-16h11L278.66,273a13.81,13.81,0,0,1-.19-2,17.37,17.37,0,0,1-.12-2.5,20.34,20.34,0,0,1-1.29,2.5,17.32,17.32,0,0,1-1.23,2.13Z"/><path class="cls-1" d="M299.51,298.3l4.43-18.56-8.06-22h6.76l5.05,13.82a13.38,13.38,0,0,0,.4,1.41c.19.61.31,1.2.5,1.82l1.2-1.82c.43-.61.83-1.11,1.23-1.6l11.79-13.63h6.46L310.4,279.62,306,298.18h-6.46Z"/><path class="cls-1" d="M360.83,278.21a25.64,25.64,0,0,1,.31-2.62,17.78,17.78,0,0,1,.3-2.92c-.4.91-.8,1.81-1.32,2.83a23.39,23.39,0,0,1-1.81,2.83L342.76,300l-5-22.08a26.2,26.2,0,0,1-.52-2.64,23.17,23.17,0,0,1-.19-2.5c-.21.8-.52,1.7-.82,2.72a21.89,21.89,0,0,1-1.21,2.92l-9.08,20H320l19.57-42.27,5.57,25.64a19.24,19.24,0,0,1,.28,2,30.91,30.91,0,0,0,.52,3.54c.71-1.2,1.6-2.62,2.83-4.43a10.65,10.65,0,0,0,.68-1.11l17.46-25.64-.62,42.45h-5.94Z"/><path class="cls-1" d="M371.56,298.3l9.69-40.66h22L402,263.28H386.32L384,273.47H399.6l-1.41,5.75H382.55l-3.14,13.11h15.64l-1.41,6Z"/><path class="cls-1" d="M400.92,298.3l10.19-42.17L430.29,281c.49.7,1,1.41,1.51,2.21s1,1.73,1.62,2.72l6.75-28.14h5.94L436,299.93,416.47,274.6,415,272.48a10.6,10.6,0,0,1-1.23-2.36L407,298.42h-6.06Z"/><path class="cls-1" d="M466.7,263.21l-8.37,35h-6.46l8.37-35h-10.5l1.32-5.64h27.43l-1.29,5.64Z"/><path class="cls-1" d="M473.47,290.12l5.73-2.36a5.5,5.5,0,0,0,1.72,4.13,7.09,7.09,0,0,0,4.72,1.41,7.59,7.59,0,0,0,4.93-1.63,7.36,7.36,0,0,0,2.74-4.34c.61-2.35-.81-4.52-4.25-6.34a6.65,6.65,0,0,0-1.11-.61,19.42,19.42,0,0,1-7.26-5.95,8.72,8.72,0,0,1-.59-6.46,14.12,14.12,0,0,1,5.23-8.06,15.14,15.14,0,0,1,9.44-3.14,12.7,12.7,0,0,1,7,1.72,6.7,6.7,0,0,1,2.92,4.95L499,266.06a6.06,6.06,0,0,0-1.91-2.83,5,5,0,0,0-3-.9,7,7,0,0,0-4.43,1.42,6.18,6.18,0,0,0-2.36,3.73c-.62,2.35,1.11,4.71,5,6.86a7.14,7.14,0,0,0,.71.4,16.33,16.33,0,0,1,6.75,5.45,9,9,0,0,1,.61,6.65,15.86,15.86,0,0,1-5.75,9.17,16.71,16.71,0,0,1-10.38,3.45,11.46,11.46,0,0,1-7.78-2.36A7.89,7.89,0,0,1,473.47,290.12Z"/><path class="cls-1" d="M521,298.3l9.67-40.66h6.46l-9.69,40.66Z"/><path class="cls-1" d="M536.7,298.3l10.1-42.17L566,280.85c.49.71,1,1.41,1.51,2.22s1,1.72,1.6,2.71l6.77-28.14h5.94l-10.07,42.17L552.2,274.48l-1.51-2.12a10.6,10.6,0,0,1-1.23-2.36l-6.74,28.3h-6Z"/><path class="cls-1" d="M602.39,263.21l-8.38,35h-6.46l8.37-35H585.43l1.32-5.64h27.43l-1.3,5.64Z"/><path class="cls-1" d="M609.34,298.3l9.7-40.66h22.19l-1.32,5.64H624.27l-2.36,10.19h15.64l-1.39,5.75H620.52l-3.13,13.11H633l-1.41,6Z"/><path class="cls-1" d="M649.2,280l-4.34,18.16H638.8l9.76-40.63h9a28.34,28.34,0,0,1,6,.49,6.41,6.41,0,0,1,3.33,1.72,7,7,0,0,1,1.91,3.82,13,13,0,0,1-.19,5.15,14.79,14.79,0,0,1-4.15,7.66,13.71,13.71,0,0,1-7.57,3.35l9.2,18.44h-7.27L650,280Zm1.72-5h1.21a14.55,14.55,0,0,0,7.07-1.2,6.51,6.51,0,0,0,2.71-4.34c.52-2.22.31-3.82-.7-4.72a10,10,0,0,0-6.35-1.41h-1.2Z"/><path class="cls-1" d="M669.79,298.3l9.67-40.66h22.1l-1.11,5.57H684.81l-2.35,10.09h15.63l-1.41,5.76h-15.8l-4.56,19.05h-6.53Z"/><path class="cls-1" d="M723.14,298.3l-2-10.49H705.38l-7.07,10.49h-6.77l29.27-42.17,9.08,42.29Zm-14-16h11L718.31,273a10.69,10.69,0,0,1-.22-2,20.85,20.85,0,0,1,0-2.5,16.56,16.56,0,0,1-1.32,2.5,17.11,17.11,0,0,1-1.2,2.13Z"/><path class="cls-1" d="M771.87,267.52a13,13,0,0,0-5-3.53,14.78,14.78,0,0,0-6.15-1.21A17.78,17.78,0,0,0,749.15,267a20.09,20.09,0,0,0-6.74,11.08,13.12,13.12,0,0,0,1.41,10.9,10.07,10.07,0,0,0,9,4.24,18.38,18.38,0,0,0,7-1.32,28.84,28.84,0,0,0,7.08-3.82L765,295.57a22.54,22.54,0,0,1-6.36,2.83,25.09,25.09,0,0,1-6.84.89,20,20,0,0,1-8.09-1.51,13.9,13.9,0,0,1-5.73-4.53,14.24,14.24,0,0,1-2.84-6.86,20.7,20.7,0,0,1,.5-8.47,27.35,27.35,0,0,1,3.54-8.37,26,26,0,0,1,6.15-6.86,25.46,25.46,0,0,1,7.88-4.55,24.74,24.74,0,0,1,8.56-1.51,19.4,19.4,0,0,1,6.46,1,17.05,17.05,0,0,1,5.33,3.21Z"/><path class="cls-1" d="M772.48,298.3l9.67-40.66h22.08l-1.33,5.64H787.27l-2.36,10.19h15.64l-1.42,5.75H783.47l-3.14,13.11H796l-1.41,6Z"/><path class="cls-1" d="M655.05,222.24H610.83L672.29,0h44.29Z"/><path class="cls-1" d="M632.06,7Q627.53.59,617.9.59H374.48l-12,43.58H583.82L570.9,90.68H349.58L312.86,223.33h44.29l24.6-89H580.81A28,28,0,0,0,598.35,128a29.56,29.56,0,0,0,10.8-15.74l24.6-89C635.69,16.53,635.07,11.18,632.06,7Z"/><path class="cls-1" d="M287,208.3a20.42,20.42,0,0,1-19.57,14.93H39.18a15.92,15.92,0,0,1-13.92-6.34,17.41,17.41,0,0,1-1.93-15.73L79,.68h44.3L73.56,179.93H250.71L300.45.68h44.29Z"/><polygon class="cls-2" points="793.05 0.4 849.04 111.77 731.3 223.14 793.05 0.4"/><polygon class="cls-1" points="753.71 0.4 809.7 111.77 691.87 223.14 753.71 0.4"/></svg>